<svg id="Layer_35" enable-background="new 0 0 64 64" height="512" viewBox="0 0 64 64" width="512" xmlns="http://www.w3.org/2000/svg"><path d="m45 60v2h-34v-2c0-2.21 1.79-4 4-4h2 22 2c2.21 0 4 1.79 4 4z" fill="#969faa"/><path d="m36 50 3 6h-22l3-6z" fill="#aab2bd"/><path d="m29 14h-23c-2.21 0-4 1.79-4 4v28c0 2.21 1.79 4 4 4h14 16 14c2.21 0 4-1.79 4-4v-32z" fill="#ccd1d9"/><path d="m7 18c-.55 0-1 .45-1 1v26c0 .55.45 1 1 1h42c.55 0 1-.45 1-1v-27z" fill="#69d6f4"/><path d="m34 24c-1.1 0-2 .9-2 2s.9 2 2 2 2-.9 2-2-.9-2-2-2zm-1-2h5.47c.95 1.06 1.53 2.46 1.53 4 0 3.31-2.69 6-6 6s-6-2.69-6-6c0-1.94.92-3.67 2.35-4.76.77.48 1.68.76 2.65.76z" fill="#fcd770"/><path d="m46 23v6l-2.71.68c-.04.1-.07.2-.12.3l1.44 2.38-4.25 4.25-2.38-1.44c-.1.05-.2.08-.3.12l-.68 2.71h-6l-.68-2.71c-.1-.04-.2-.07-.3-.12l-2.38 1.44-4.25-4.25 1.44-2.38c-.05-.1-.08-.2-.12-.3l-2.71-.68v-6l2.71-.68c.04-.1.07-.2.12-.3l-1.44-2.38 1.64-1.64h3.07c.28 1.36 1.11 2.52 2.25 3.24-1.43 1.09-2.35 2.82-2.35 4.76 0 3.31 2.69 6 6 6s6-2.69 6-6c0-1.54-.58-2.94-1.53-4h7.53z" fill="#ffc729"/><path d="m56.92 12h.08c2.76 0 5 2.24 5 5s-2.24 5-5 5h-3-4-4-7.53-5.47c-.97 0-1.88-.28-2.65-.76-1.14-.72-1.97-1.88-2.25-3.24-.07-.32-.1-.66-.1-1 0-1.13.37-2.17 1-3 .91-1.21 2.37-2 4-2 .08 0 .17 0 .25.01-.16-.64-.25-1.32-.25-2.01 0-4.42 3.58-8 8-8 3.55 0 6.55 2.31 7.6 5.5.73-.32 1.55-.5 2.4-.5 2.98 0 5.44 2.16 5.92 5z" fill="#e6e9ed"/><path d="m57.719 11.047c-.854-2.967-3.557-5.047-6.719-5.047-.621 0-1.231.081-1.825.242-1.453-3.173-4.622-5.242-8.175-5.242-4.962 0-9 4.037-9 9 0 .362.025.722.068 1.08-1.393.219-2.625.916-3.527 1.92h-22.541c-2.757 0-5 2.243-5 5v28c0 2.757 2.243 5 5 5h12.382l-2 4h-1.382c-2.757 0-5 2.243-5 5v3h36v-3c0-2.757-2.243-5-5-5h-1.382l-2-4h12.382c2.757 0 5-2.243 5-5v-23h2c3.309 0 6-2.691 6-6 0-3.065-2.311-5.596-5.281-5.953zm-19.745 11.953c.653.864 1.026 1.908 1.026 3 0 2.757-2.243 5-5 5s-5-2.243-5-5c0-1.357.537-2.622 1.489-3.558.765.355 1.614.558 2.511.558h1zm-3.974 10c3.86 0 7-3.141 7-7 0-1.048-.237-2.07-.678-3h4.678v5.219l-1.949.487-.534.205-.466 1.139 1.296 2.159-3.138 3.139-2.158-1.296-1.22.496-.612 2.452h-4.438l-.487-1.949-.203-.535-1.142-.464-2.158 1.296-3.138-3.139 1.296-2.159-.5-1.22-2.449-.611v-4.438l2.446-.611.503-1.22-1.296-2.159.79-.791h1.907c.312.878.819 1.664 1.475 2.3-1.166 1.278-1.825 2.93-1.825 4.7 0 3.859 3.14 7 7 7zm-10.584-11.384-2.416.603v7.562l2.416.603-1.281 2.136 5.347 5.346 2.134-1.281.603 2.415h7.562l.603-2.416 2.134 1.281 5.347-5.346-1.281-2.136 2.416-.602v-6.781h2v22h-42v-26h15.615l-.481.48zm20.584 38.384v1h-32v-1c0-1.654 1.346-3 3-3h26c1.654 0 3 1.346 3 3zm-6.618-5h-18.764l2-4h14.764zm15.618-9c0 1.654-1.346 3-3 3h-44c-1.654 0-3-1.346-3-3v-28c0-1.654 1.346-3 3-3h21.35c-.222.627-.35 1.298-.35 2h-20c-1.103 0-2 .897-2 2v26c0 1.103.897 2 2 2h42c1.103 0 2-.897 2-2v-22h2zm4-25h-24c-2.206 0-4-1.794-4-4s1.794-4 4-4 4 1.794 4 4h2c0-2.933-2.117-5.377-4.903-5.895-.058-.364-.097-.733-.097-1.105 0-3.859 3.14-7 7-7 3.03 0 5.701 1.936 6.647 4.815l.343 1.046 1.008-.441c.637-.278 1.311-.42 2.002-.42 2.096 0 3.904 1.284 4.641 3.161-2.655.618-4.641 2.998-4.641 5.839h2c0-2.206 1.794-4 4-4s4 1.794 4 4-1.794 4-4 4z"/><path d="m31 26c0 1.654 1.346 3 3 3s3-1.346 3-3-1.346-3-3-3-3 1.346-3 3zm3-1c.551 0 1 .448 1 1s-.449 1-1 1-1-.448-1-1 .449-1 1-1z"/><path d="m9 21h2v2h-2z"/><path d="m13 21h2v2h-2z"/><path d="m17 21h2v2h-2z"/><path d="m9 25h10v2h-10z"/><path d="m9 29h10v2h-10z"/><path d="m9 33h10v2h-10z"/><path d="m9 37h10v2h-10z"/><path d="m9 41h18v2h-18z"/><path d="m29 41h2v2h-2z"/><path d="m33 41h2v2h-2z"/></svg>